<svg xmlns="http://www.w3.org/2000/svg" width="201.332" height="201.332" viewBox="0 0 201.332 201.332">
  <g id="backend" transform="translate(-1 -1)">
    <path id="Path_55" data-name="Path 55" d="M192.59,1H49.709a9.754,9.754,0,0,0-9.742,9.742V59.451H17.236A16.255,16.255,0,0,0,1,75.688v77.935a16.255,16.255,0,0,0,16.236,16.236H48.449l-4.329,12.989H33.473a9.754,9.754,0,0,0-9.742,9.742v9.742H121.15V192.59a9.754,9.754,0,0,0-9.742-9.742H100.76l-4.329-12.989h31.213a16.255,16.255,0,0,0,16.236-16.236v-3.247H192.59a9.754,9.754,0,0,0,9.742-9.742V10.742A9.754,9.754,0,0,0,192.59,1ZM49.709,7.495H192.59a3.253,3.253,0,0,1,3.247,3.247V26.978H46.462V10.742A3.253,3.253,0,0,1,49.709,7.495ZM17.236,65.946H127.645a9.754,9.754,0,0,1,9.742,9.742v61.7H7.495v-61.7A9.754,9.754,0,0,1,17.236,65.946ZM143.881,85.43h38.968v45.462H143.881ZM114.655,192.59v3.247H30.226V192.59a3.253,3.253,0,0,1,3.247-3.247h77.935A3.253,3.253,0,0,1,114.655,192.59Zm-20.744-9.742H50.969L55.3,169.859H89.583Zm33.733-19.484H17.236a9.754,9.754,0,0,1-9.742-9.742v-9.742H137.386v9.742A9.754,9.754,0,0,1,127.645,163.365Zm64.946-19.484H143.881v-6.495h45.462V78.935H143.881V75.688a16.255,16.255,0,0,0-16.236-16.236H46.462V33.473H195.838V140.634A3.253,3.253,0,0,1,192.59,143.881Z" fill="#54ca95"/>
    <path id="Path_56" data-name="Path 56" d="M18,47h6.495v6.495H18Z" transform="translate(38.204 103.376)" fill="#54ca95"/>
    <path id="Path_57" data-name="Path 57" d="M22,47h6.495v6.495H22Z" transform="translate(47.193 103.376)" fill="#54ca95"/>
    <path id="Path_58" data-name="Path 58" d="M26,47h6.495v6.495H26Z" transform="translate(56.182 103.376)" fill="#54ca95"/>
    <path id="Path_59" data-name="Path 59" d="M21,5h6.495v6.495H21Z" transform="translate(44.946 8.989)" fill="#54ca95"/>
    <path id="Path_60" data-name="Path 60" d="M25,5h6.495v6.495H25Z" transform="translate(53.935 8.989)" fill="#54ca95"/>
    <path id="Path_61" data-name="Path 61" d="M17,5h6.495v6.495H17Z" transform="translate(35.957 8.989)" fill="#54ca95"/>
    <path id="Path_62" data-name="Path 62" d="M17,13h6.495v6.495H17Z" transform="translate(35.957 26.968)" fill="#54ca95"/>
    <path id="Path_63" data-name="Path 63" d="M21,13H144.4v6.495H21Z" transform="translate(44.946 26.968)" fill="#54ca95"/>
    <path id="Path_64" data-name="Path 64" d="M47,17H85.968v6.495H47Z" transform="translate(103.376 35.957)" fill="#54ca95"/>
    <path id="Path_65" data-name="Path 65" d="M47,21H85.968v6.495H47Z" transform="translate(103.376 44.946)" fill="#54ca95"/>
    <path id="Path_66" data-name="Path 66" d="M14.742,81.451H79.688a9.754,9.754,0,0,0,9.742-9.742V32.742A9.754,9.754,0,0,0,79.688,23H14.742A9.754,9.754,0,0,0,5,32.742V71.709A9.754,9.754,0,0,0,14.742,81.451ZM11.495,32.742a3.253,3.253,0,0,1,3.247-3.247H79.688a3.253,3.253,0,0,1,3.247,3.247V71.709a3.253,3.253,0,0,1-3.247,3.247H14.742a3.253,3.253,0,0,1-3.247-3.247Z" transform="translate(8.989 49.441)" fill="#54ca95"/>
    <path id="Path_67" data-name="Path 67" d="M0,0H41.075V6.495H0Z" transform="matrix(0.316, -0.949, 0.949, 0.316, 46.648, 120.07)" fill="#54ca95"/>
    <path id="Path_68" data-name="Path 68" d="M25.885,57.863,41.17,42.578,25.885,27.293l-4.592,4.592L31.986,42.578,21.293,53.271Z" transform="translate(45.604 59.088)" fill="#54ca95"/>
    <path id="Path_69" data-name="Path 69" d="M28.463,53.271,17.769,42.578,28.463,31.885l-4.592-4.592L8.586,42.578,23.871,57.863Z" transform="translate(17.048 59.088)" fill="#54ca95"/>
    <path id="Path_70" data-name="Path 70" d="M33,23H58.978v6.495H33Z" transform="translate(71.913 49.441)" fill="#54ca95"/>
    <path id="Path_71" data-name="Path 71" d="M33,27H58.978v6.495H33Z" transform="translate(71.913 58.43)" fill="#54ca95"/>
    <path id="Path_72" data-name="Path 72" d="M33,31H58.978v6.495H33Z" transform="translate(71.913 67.419)" fill="#54ca95"/>
    <path id="Path_73" data-name="Path 73" d="M33,35H58.978v6.495H33Z" transform="translate(71.913 76.408)" fill="#54ca95"/>
    <path id="Path_74" data-name="Path 74" d="M35,39h6.495v6.495H35Z" transform="translate(76.408 85.397)" fill="#54ca95"/>
    <path id="Path_75" data-name="Path 75" d="M39,39h6.495v6.495H39Z" transform="translate(85.397 85.397)" fill="#54ca95"/>
  </g>
</svg>
