<svg xmlns="http://www.w3.org/2000/svg" width="511.999" height="512" viewBox="0 0 511.999 512">
  <g id="design" transform="translate(0 0)">
    <path id="Path_1" data-name="Path 1" d="M151,421a59.831,59.831,0,0,0-19.09-43.833l.006-.083c1.063-14.686,1.924-30.168,2.578-46.143,30.713,5.786,52.476,17.431,64.8,34.728,15.886,22.3,11.655,48.495,9.98,55.991-5.584,24.991,9.215,50.308,34.285,55.124a229.352,229.352,0,0,0,43.314,4.173,223.47,223.47,0,0,0,142.556-51.648c52.459-43.33,82.557-106.5,82.574-173.3.036-126.622-110.09-229.925-225.1-225.8-62.835,2.257-119.3,33.211-158.24,67.283q-.747-6.964-1.564-13.548c-2.856-22.982-6.23-41.2-10.028-54.149C114.457,20.879,108.333,0,91,0s-23.457,20.879-26.071,29.8c-3.8,12.949-7.171,31.167-10.028,54.149C49.161,130.129,46,191.233,46,256c0,42.314,1.412,84.184,4.084,121.083l.006.084A59.831,59.831,0,0,0,31,421v31c0,16.262-14.2,30-31,30v30H61c49.55,0,90-41.067,90-91ZM287.979,60.19C384.63,56.722,482.031,144.961,482,256c-.016,57.831-26.142,112.57-71.679,150.183a194.556,194.556,0,0,1-161.106,41.144c-8.352-1.6-12.552-10.684-10.666-19.121,3.023-13.532,7.632-48.412-14.823-79.938-17.618-24.735-47.273-40.72-88.256-47.619.348-14.693.527-45.763.527-46.323a45,45,0,1,0-.908-57.682c-.667-21.309-1.694-41.749-3.054-60.855,33.943-35.861,91.33-73.274,155.944-75.6ZM155.6,221.059a15,15,0,1,1,10.606,18.371A14.992,14.992,0,0,1,155.6,221.059ZM83.194,100.442C85.785,76.3,88.557,59.933,91,48.918c2.443,11.015,5.215,27.38,7.806,51.524C103.445,143.673,106,198.918,106,256q0,7.515-.061,15H76.061Q76,263.518,76,256c0-57.082,2.555-112.327,7.194-155.558ZM76.545,300.99h28.91c-.514,21.183-1.389,41.784-2.6,61.191a60.051,60.051,0,0,0-23.7,0c-1.214-19.407-2.089-40.007-2.6-61.191ZM61,452V421a30,30,0,1,1,60,0c0,33.635-26.916,61-60,61H52.744A58.382,58.382,0,0,0,61,452Z" fill="#54ca95"/>
    <path id="Path_2" data-name="Path 2" d="M402.673,202.967a45,45,0,1,0-63.64,0,44.974,44.974,0,0,0,63.64,0Zm-42.427-42.426a15,15,0,1,1,0,21.213A15.018,15.018,0,0,1,360.246,160.541Z" fill="#54ca95"/>
    <path id="Path_3" data-name="Path 3" d="M266.588,183.556a45,45,0,1,0-55.113-31.819A45.052,45.052,0,0,0,266.588,183.556ZM251.06,125.6a15,15,0,1,1-10.606,18.371A15.02,15.02,0,0,1,251.06,125.6Z" fill="#54ca95"/>
    <path id="Path_4" data-name="Path 4" d="M273.591,383.559a45,45,0,1,0,31.82-55.114,45.052,45.052,0,0,0-31.82,55.114Zm39.586-26.137a15,15,0,1,1-10.607,18.372A14.991,14.991,0,0,1,313.177,357.422Z" fill="#54ca95"/>
    <path id="Path_5" data-name="Path 5" d="M358.444,275.412a45,45,0,1,0,55.114-31.819,45.052,45.052,0,0,0-55.114,31.819ZM416.4,290.941a15,15,0,1,1-10.606-18.371A14.991,14.991,0,0,1,416.4,290.941Z" fill="#54ca95"/>
  </g>
</svg>
