<svg xmlns="http://www.w3.org/2000/svg" width="512" height="502" viewBox="0 0 512 502">
  <g id="ecommerce" transform="translate(0 -5)">
    <path id="Path_1" data-name="Path 1" d="M450.958,5H61.042A61.111,61.111,0,0,0,0,66.042V373.957A61.111,61.111,0,0,0,61.042,435h98.566v42H112a15,15,0,1,0,0,30H400a15,15,0,0,0,0-30H352.391V435h98.566A61.111,61.111,0,0,0,512,373.958V66.042A61.111,61.111,0,0,0,450.958,5ZM61.042,35H450.957A31.078,31.078,0,0,1,482,66.042V341H30V66.042A31.078,31.078,0,0,1,61.042,35ZM322.391,477H189.609V435H322.391Zm128.567-72H61.043A31.078,31.078,0,0,1,30,373.958V371H482v2.958A31.078,31.078,0,0,1,450.958,405Z" fill="#54ca95"/>
    <path id="Path_2" data-name="Path 2" d="M128.578,99H161V224.65A22.375,22.375,0,0,0,183.35,247H313.131a22.362,22.362,0,0,0,21.617-16.675l21.342-81.3A22.347,22.347,0,0,0,334.472,121H191V84a15,15,0,0,0-15-15H128.578a15,15,0,1,0,0,30Zm195.977,52-17.326,66H191V151Z" fill="#54ca95"/>
    <path id="Path_3" data-name="Path 3" d="M208,277H184a15,15,0,0,0,0,30h24a15,15,0,0,0,0-30Z" fill="#54ca95"/>
    <path id="Path_4" data-name="Path 4" d="M312,277H288a15,15,0,0,0,0,30h24a15,15,0,0,0,0-30Z" fill="#54ca95"/>
  </g>
</svg>
